<?xml version="1.0" standalone="no"?>
<!DOCTYPE svg PUBLIC "-//W3C//DTD SVG 20010904//EN"
 "http://www.w3.org/TR/2001/REC-SVG-20010904/DTD/svg10.dtd">
<svg version="1.0" xmlns="http://www.w3.org/2000/svg"
 width="812.000000pt" height="744.000000pt" viewBox="0 0 812.000000 744.000000"
 preserveAspectRatio="xMidYMid meet">
<metadata>
Created by potrace 1.15, written by Peter Selinger 2001-2017
</metadata>
<g transform="translate(0.000000,744.000000) scale(0.100000,-0.100000)"
fill="#1890ff" stroke="none">
<path d="M2325 7073 c-59 -8 -151 -44 -196 -77 -269 -198 -329 -736 -169
-1512 17 -82 35 -153 40 -158 14 -14 130 14 130 32 0 8 -9 79 -21 159 -18 127
-20 177 -16 416 4 234 7 282 25 347 64 231 160 358 308 405 44 14 79 16 162
13 186 -8 399 -93 657 -263 66 -43 140 -95 165 -115 139 -112 176 -140 185
-140 12 1 115 114 115 127 0 10 -128 128 -260 239 -357 303 -695 484 -974 523
-78 11 -95 11 -151 4z"/>
<path d="M5435 7069 c-275 -42 -615 -226 -965 -523 -129 -109 -260 -229 -260
-239 0 -4 50 -65 111 -135 164 -187 142 -170 177 -136 16 16 73 67 128 114
297 257 553 417 809 506 106 37 115 39 240 39 123 0 133 -2 188 -28 32 -16 80
-51 108 -78 46 -47 49 -48 49 -25 0 36 -47 181 -82 251 -96 195 -280 289 -503
254z"/>
<path d="M6280 6907 c0 -2 14 -43 30 -92 64 -190 75 -278 75 -605 -1 -334 -9
-419 -77 -745 -23 -110 -42 -209 -42 -219 -1 -17 17 -26 109 -54 61 -19 119
-35 129 -36 23 -1 23 -2 63 224 26 149 27 168 27 500 0 380 -1 386 -70 610
-42 134 -105 257 -182 353 -49 60 -62 74 -62 64z"/>
<path d="M3839 5919 c-98 -112 -329 -396 -329 -403 0 -1 109 -1 243 1 l242 4
63 67 63 67 62 -67 62 -67 83 -7 c45 -4 82 -4 82 -1 0 19 -434 537 -450 537
-4 0 -58 -59 -121 -131z"/>
<path d="M3445 5160 c-60 -4 -131 -8 -156 -9 l-47 -1 -90 -137 c-218 -335
-410 -669 -586 -1021 l-46 -92 41 -83 c76 -151 211 -400 307 -567 143 -249
393 -635 304 -470 -16 30 -39 71 -52 90 -75 120 -205 357 -326 596 l-56 111
99 194 c55 107 111 213 126 236 15 24 27 46 27 51 0 4 14 30 31 56 16 27 43
71 58 100 71 131 327 532 354 554 35 29 956 41 1290 16 l88 -7 105 -158 c57
-87 104 -161 104 -164 0 -3 20 -36 43 -73 58 -89 137 -221 137 -228 0 -3 18
-36 39 -72 22 -37 57 -101 79 -142 22 -41 44 -76 50 -78 6 -2 16 6 22 17 9 17
2 37 -36 113 -176 351 -368 686 -586 1019 l-89 137 -72 6 c-115 10 -1041 15
-1162 6z"/>
<path d="M2479 5055 c-140 -24 -273 -48 -295 -53 -21 -6 -51 -13 -66 -16 l-27
-6 49 -143 c82 -244 188 -517 200 -517 3 0 15 19 26 43 19 38 20 46 7 87 -14
45 -43 135 -50 156 -5 15 16 23 101 34 39 6 79 13 89 16 9 3 49 59 87 125 39
66 98 162 130 215 33 52 60 97 60 100 0 9 -66 1 -311 -41z"/>
<path d="M5130 5096 c0 -3 34 -59 75 -126 85 -137 247 -418 321 -557 27 -51
52 -93 57 -93 4 0 7 11 7 25 0 24 -52 121 -158 292 -50 81 -50 82 -24 78 15
-3 90 -16 166 -30 110 -20 141 -22 148 -13 4 7 30 79 57 160 49 146 49 148 28
153 -117 27 -185 40 -396 75 -238 39 -281 45 -281 36z"/>
<path d="M1615 4851 c-731 -232 -1185 -556 -1245 -888 -24 -136 35 -289 164
-428 l47 -50 -5 50 c-20 221 176 459 554 669 62 35 87 47 240 119 79 36 180
74 365 137 129 44 140 49 139 71 -3 42 -116 359 -128 359 -6 -1 -65 -18 -131
-39z"/>
<path d="M6130 4793 c-72 -224 -182 -511 -293 -765 l-56 -127 60 -138 c113
-256 217 -528 285 -745 19 -59 37 -108 41 -108 18 0 83 24 83 31 0 31 -127
355 -232 591 l-21 48 30 67 c75 169 203 478 203 490 0 4 20 62 44 128 24 66
52 148 62 183 10 35 22 61 28 59 6 -3 45 -15 86 -27 435 -131 845 -349 1048
-557 61 -62 69 -57 52 38 -54 302 -427 594 -1052 824 -114 42 -311 105 -329
105 -5 0 -22 -44 -39 -97z"/>
<path d="M7867 4125 c34 -105 43 -278 19 -378 -103 -438 -564 -810 -1341
-1082 -82 -28 -181 -60 -218 -70 -60 -16 -68 -21 -64 -39 103 -466 121 -609
122 -961 0 -329 -9 -403 -75 -605 -98 -302 -270 -487 -530 -572 -79 -25 -116
-31 -220 -35 -208 -8 -405 43 -665 172 -251 125 -552 339 -825 589 -58 53
-107 96 -110 96 -3 0 -52 -43 -110 -96 -273 -250 -574 -464 -825 -589 -260
-129 -457 -180 -665 -172 -212 8 -376 75 -516 212 -39 39 -91 99 -114 135
l-42 65 4 -40 c9 -66 96 -274 153 -365 81 -128 202 -237 343 -309 77 -39 245
-73 366 -72 99 0 141 5 311 41 112 24 375 142 545 245 198 120 402 276 605
463 l107 97 66 -64 c108 -103 336 -288 472 -383 249 -173 555 -323 740 -363
156 -33 178 -36 285 -36 414 0 704 228 839 659 68 216 71 242 70 607 0 214 -5
358 -13 410 -13 86 -75 412 -92 484 -5 24 -9 44 -7 45 2 1 71 23 153 50 83 27
192 67 244 88 51 21 97 38 102 38 22 0 364 175 464 237 430 268 668 605 669
948 0 55 -6 125 -13 155 -38 152 -124 323 -216 426 l-44 49 26 -80z"/>
<path d="M4652 4060 c16 -67 19 -107 15 -190 -8 -189 -73 -336 -207 -470 -87
-87 -172 -139 -285 -177 -71 -24 -95 -27 -215 -27 -120 0 -144 3 -215 27 -116
38 -199 91 -292 185 -48 47 -83 75 -83 66 0 -74 80 -272 142 -354 108 -142
283 -254 447 -285 365 -70 712 105 855 431 57 131 69 191 64 339 -4 119 -7
138 -40 222 -42 111 -85 183 -154 260 l-52 58 20 -85z"/>
<path d="M5535 3403 c-108 -200 -221 -396 -340 -589 -36 -58 -64 -108 -61
-111 6 -6 403 55 431 67 18 7 70 89 145 233 l25 48 17 -38 c54 -119 -66 228
-146 420 l-24 59 -47 -89z"/>
<path d="M2292 3378 c-66 -164 -206 -558 -198 -558 2 0 67 -14 145 -30 78 -17
146 -28 151 -25 4 3 20 35 34 73 83 223 78 213 91 194 7 -9 32 -53 56 -97 127
-233 120 -223 167 -230 24 -4 46 -4 48 -2 3 3 -25 54 -62 113 -123 199 -266
448 -350 609 -16 30 -31 55 -34 55 -3 0 -25 -46 -48 -102z"/>
<path d="M145 3438 c29 -148 81 -263 173 -388 68 -92 213 -236 307 -305 71
-52 260 -175 269 -175 3 0 27 -13 53 -29 61 -37 258 -128 393 -182 98 -39 252
-91 256 -86 1 2 21 90 61 283 4 19 -2 23 -49 34 -68 16 -356 117 -473 165
-426 176 -774 417 -941 650 -25 36 -48 65 -51 65 -2 0 -2 -15 2 -32z"/>
<path d="M1990 2451 c-20 -71 -79 -388 -96 -511 -21 -157 -24 -538 -5 -655 17
-107 55 -225 98 -307 36 -69 101 -151 133 -168 16 -8 16 -3 -4 68 -18 70 -20
107 -21 387 0 329 3 357 60 635 13 63 27 134 30 158 4 23 12 42 18 42 6 0 90
-16 186 -35 189 -37 357 -63 631 -98 161 -21 174 -24 189 -47 9 -14 47 -67 86
-119 38 -51 79 -105 90 -120 40 -54 216 -271 223 -275 7 -4 102 80 102 90 0 2
-58 71 -128 152 -162 185 -318 380 -436 544 -76 105 -96 128 -121 132 -16 3
-100 12 -185 21 -164 17 -633 93 -762 124 l-78 18 -10 -36z"/>
<path d="M5840 2468 c-128 -30 -598 -106 -760 -123 -85 -9 -168 -18 -185 -21
-25 -4 -45 -27 -121 -132 -118 -164 -274 -359 -436 -544 -70 -81 -128 -149
-128 -152 0 -7 141 -140 214 -202 l68 -58 27 31 c178 209 284 340 365 448 53
72 114 153 136 181 l38 50 139 17 c286 35 786 118 802 133 6 5 -67 363 -77
379 -5 8 -26 7 -82 -7z"/>
<path d="M3518 2275 c9 -16 68 -89 186 -232 l109 -133 147 0 147 0 109 133
c118 143 177 216 186 232 4 7 -146 10 -442 10 -296 0 -446 -3 -442 -10z"/>
</g>
</svg>
